HIERARCHY
ROOT joint_Root
{
	OFFSET 0.0 0.0 0.0
	CHANNELS 6 Xposition Yposition Zposition Zrotation Xrotation Yrotation 
	JOINT Hips
	{
		OFFSET -0.726466 93.3139 -2.00062
		CHANNELS 6 Xposition Yposition Zposition Zrotation Xrotation Yrotation 
		JOINT Spine
		{
			OFFSET 15.7357 0.0 0.0
			CHANNELS 6 Xposition Yposition Zposition Zrotation Xrotation Yrotation 
			JOINT Chest
			{
				OFFSET 8.98455 -0.406207 0.0
				CHANNELS 6 Xposition Yposition Zposition Zrotation Xrotation Yrotation 
				JOINT Neck
				{
					OFFSET 16.3773 0.0 0.0
					CHANNELS 6 Xposition Yposition Zposition Zrotation Xrotation Yrotation 
					JOINT Head
					{
						OFFSET 6.45672 0.0 0.0
						CHANNELS 6 Xposition Yposition Zposition Zrotation Xrotation Yrotation 
						End Site
						{
							OFFSET 0.0 0.0 0.0
						}
					}
				}
				JOINT Shoulder_L
				{
					OFFSET 12.9942 -0.242716 4.98039
					CHANNELS 6 Xposition Yposition Zposition Zrotation Xrotation Yrotation 
					JOINT UpperArm_L
					{
						OFFSET 5.34809 0.0 0.0
						CHANNELS 6 Xposition Yposition Zposition Zrotation Xrotation Yrotation 
						JOINT LowerArm_L
						{
							OFFSET 24.3286 1.87007e-05 0.0
							CHANNELS 6 Xposition Yposition Zposition Zrotation Xrotation Yrotation 
							JOINT Hand_L
							{
								OFFSET 22.2916 0.0 0.0
								CHANNELS 6 Xposition Yposition Zposition Zrotation Xrotation Yrotation 
								End Site
								{
									OFFSET 0.0 0.0 0.0
								}
							}
						}
					}
				}
				JOINT Shoulder_R
				{
					OFFSET 12.9945 -0.242716 -4.98039
					CHANNELS 6 Xposition Yposition Zposition Zrotation Xrotation Yrotation 
					JOINT UpperArm_R
					{
						OFFSET -5.34813 0.0 0.0
						CHANNELS 6 Xposition Yposition Zposition Zrotation Xrotation Yrotation 
						JOINT LowerArm_R
						{
							OFFSET -24.3289 0.000322201 0.0
							CHANNELS 6 Xposition Yposition Zposition Zrotation Xrotation Yrotation 
							JOINT Hand_R
							{
								OFFSET -22.2915 -0.000108084 0.0
								CHANNELS 6 Xposition Yposition Zposition Zrotation Xrotation Yrotation 
								End Site
								{
									OFFSET 0.0 0.0 0.0
								}
							}
						}
					}
				}
			}
		}
		JOINT UpperLeg_L
		{
			OFFSET -2.19248 -6.46944 0.0
			CHANNELS 6 Xposition Yposition Zposition Zrotation Xrotation Yrotation 
			JOINT LowerLeg_L
			{
				OFFSET 39.0811 0.0 -1.23785e-05
				CHANNELS 6 Xposition Yposition Zposition Zrotation Xrotation Yrotation 
				JOINT Foot_L
				{
					OFFSET 40.9854 0.0 -1.26872e-05
					CHANNELS 6 Xposition Yposition Zposition Zrotation Xrotation Yrotation 
					JOINT Toes_L
					{
						OFFSET 11.7543 0.0 0.0
						CHANNELS 6 Xposition Yposition Zposition Zrotation Xrotation Yrotation 
						End Site
						{
							OFFSET 0.0 0.0 0.0
						}
					}
				}
			}
		}
		JOINT UpperLeg_R
		{
			OFFSET -2.19251 6.46944 0.0
			CHANNELS 6 Xposition Yposition Zposition Zrotation Xrotation Yrotation 
			JOINT LowerLeg_R
			{
				OFFSET -39.0811 -0.00228153 -0.0401928
				CHANNELS 6 Xposition Yposition Zposition Zrotation Xrotation Yrotation 
				JOINT Foot_R
				{
					OFFSET -40.9854 0.0 0.0
					CHANNELS 6 Xposition Yposition Zposition Zrotation Xrotation Yrotation 
					JOINT Toes_R
					{
						OFFSET -11.7543 0.0 0.0
						CHANNELS 6 Xposition Yposition Zposition Zrotation Xrotation Yrotation 
						End Site
						{
							OFFSET 0.0 0.0 0.0
						}
					}
				}
			}
		}
	}
}
MOTION
Frames:	6
Frame Time:	0.0333333
0.000000 0.000000 0.000000 0.000000 0.000000 -0.000000 -5.146660 83.331800 72.569900 -89.740700 4.671520 176.830000 15.735700 0.000005 -0.000001 100.228000 81.359900 -98.784600 8.984550 -0.406207 -0.000000 9.212090 3.069870 2.638270 16.377300 -0.000001 -0.000001 0.426555 -0.623555 -0.343345 6.456720 -0.000001 -0.000000 -0.939158 -0.122142 -2.410280 12.994200 -0.242716 4.980390 -88.835500 -2.999130 -68.774300 5.348090 -0.000007 -0.000001 -66.520800 41.109900 6.575390 24.328600 0.000019 0.000005 4.546370 1.355370 -73.482800 22.291600 -0.000001 0.000005 -0.972582 5.674270 -18.110500 12.994500 -0.242716 -4.980390 88.118700 5.055890 -69.561000 -5.348130 -0.000001 -0.000004 -48.999000 30.302400 -39.771500 -24.328900 0.000322 -0.000009 -4.844760 1.398810 -106.080000 -22.291500 -0.000108 -0.000004 13.511200 5.632680 -13.545700 -2.192480 -6.469440 -0.000000 177.939000 -6.044740 -37.787200 39.081100 -0.000007 -0.000012 -0.622182 -0.312276 116.652000 40.985400 -0.000006 -0.000013 12.591400 -7.817470 -47.842200 11.754300 -0.000000 0.000003 -0.006476 -0.075110 -19.634100 -2.192510 6.469440 -0.000001 -174.393000 7.166310 165.935000 -39.081100 -0.002282 -0.040193 0.181823 -0.140210 51.863800 -40.985400 0.000008 0.000006 14.849700 -0.819018 -89.375900 -11.754300 -0.000006 -0.000006 -0.009676 -0.101204 -20.696100
0.000000 0.000000 0.000000 0.000000 0.000000 -0.000000 -5.474010 85.885900 62.947000 -92.296600 7.315000 176.127000 15.735700 0.000005 -0.000001 110.316000 81.378100 -110.465000 8.984550 -0.406207 -0.000000 8.447110 5.958000 -0.739711 16.377300 -0.000001 -0.000001 1.326630 -0.807157 0.360780 6.456720 -0.000001 -0.000000 -0.086368 -2.998540 -0.387022 12.994200 -0.242716 4.980390 -88.091600 -4.559180 -67.259800 5.348090 -0.000007 -0.000001 -66.810100 42.143800 12.647100 24.328600 0.000019 0.000005 1.353440 0.229653 -80.423200 22.291600 -0.000001 0.000005 -1.677020 5.665580 -16.728300 12.994500 -0.242716 -4.980390 88.853800 3.205170 -70.310600 -5.348130 -0.000001 -0.000004 -51.751600 30.667700 -44.049000 -24.328900 0.000322 -0.000009 -6.927740 2.865250 -112.346000 -22.291500 -0.000108 -0.000004 13.430500 5.623510 -12.860100 -2.192480 -6.469440 -0.000000 173.945000 -4.791130 -42.643600 39.081100 -0.000007 -0.000012 -0.419342 -0.127537 106.918000 40.985400 -0.000006 -0.000013 11.931500 -11.274600 -53.190000 11.754300 -0.000000 0.000003 -0.006103 -0.071781 -19.498300 -2.192510 6.469440 -0.000001 -179.746000 7.368210 175.285000 -39.081100 -0.002282 -0.040193 0.147740 -0.158753 42.302800 -40.985400 0.000008 0.000006 15.529300 4.401110 -79.563700 -11.754300 -0.000006 -0.000006 -0.249591 -0.461657 -29.345800
0.000000 0.000000 0.000000 0.000000 0.000000 -0.000000 -5.616670 89.282200 53.323600 -94.094700 8.970450 174.845000 15.735700 0.000005 -0.000001 118.039000 81.501300 -119.529000 8.984550 -0.406207 -0.000000 7.396140 7.965430 -3.494970 16.377300 -0.000001 -0.000001 2.088280 -0.960339 0.576922 6.456720 -0.000001 -0.000000 0.371106 -5.223910 1.159090 12.994200 -0.242716 4.980390 -87.315700 -6.076580 -66.113000 5.348090 -0.000007 -0.000001 -67.891300 41.122800 17.353200 24.328600 0.000019 0.000005 -0.187930 -0.013215 -85.792600 22.291600 -0.000001 0.000005 -2.175530 5.656050 -15.622200 12.994500 -0.242716 -4.980390 89.312400 1.957930 -70.648200 -5.348130 -0.000001 -0.000004 -53.582500 32.949200 -45.720500 -24.328900 0.000322 -0.000009 -7.651370 3.872210 -116.691000 -22.291500 -0.000108 -0.000004 11.437800 5.609860 -11.922600 -2.192480 -6.469440 -0.000000 171.994000 -3.003900 -44.476500 39.081100 -0.000007 -0.000012 -0.185732 -0.002171 90.672600 40.985400 -0.000006 -0.000013 10.851100 -13.635000 -57.142100 11.754300 -0.000000 0.000003 -0.007192 -0.081314 -19.887200 -2.192510 6.469440 -0.000001 176.214000 7.268160 -178.127000 -39.081100 -0.002282 -0.040193 0.088259 -0.128123 33.550500 -40.985400 0.000008 0.000006 13.691900 9.643350 -62.742900 -11.754300 -0.000006 -0.000006 -0.186481 -0.622162 -43.142600
0.000000 0.000000 0.000000 0.000000 0.000000 -0.000000 -5.516480 92.300200 43.973500 -93.548800 9.246420 174.362000 15.735700 0.000005 -0.000001 122.142000 81.443000 -124.045000 8.984550 -0.406207 -0.000000 6.946140 9.088780 -4.360250 16.377300 -0.000001 -0.000001 2.888360 -0.973382 0.434287 6.456720 -0.000001 -0.000000 0.435882 -6.622690 2.212330 12.994200 -0.242716 4.980390 -86.522400 -7.760580 -65.770000 5.348090 -0.000007 -0.000001 -70.105200 38.254800 20.927500 24.328600 0.000019 0.000005 -1.488490 -0.010171 -89.595100 22.291600 -0.000001 0.000005 -2.216680 5.645780 -14.631100 12.994500 -0.242716 -4.980390 89.597900 1.199420 -71.466800 -5.348130 -0.000001 -0.000004 -54.803000 35.705800 -45.048300 -24.328900 0.000322 -0.000009 -5.874760 3.250920 -118.862000 -22.291500 -0.000108 -0.000004 9.092600 5.587900 -10.630500 -2.192480 -6.469440 -0.000000 173.323000 -1.414490 -42.128400 39.081100 -0.000007 -0.000012 -0.024716 0.009014 69.975800 40.985400 -0.000006 -0.000013 9.941620 -13.897300 -60.714100 11.754300 -0.000000 0.000003 -0.006748 -0.077491 -19.731200 -2.192510 6.469440 -0.000001 173.420000 11.211300 -173.203000 -39.081100 -0.002282 -0.040193 0.057526 -0.104250 27.478100 -40.985400 0.000008 0.000006 7.570770 16.909900 -43.284300 -11.754300 -0.000006 -0.000006 -0.165247 -0.583989 -41.371600
0.000000 0.000000 0.000000 0.000000 0.000000 -0.000000 -4.984830 93.920400 34.598800 -91.208400 8.755140 174.451000 15.735700 0.000005 -0.000001 124.288000 81.272500 -125.816000 8.984550 -0.406207 -0.000000 6.865870 9.813590 -3.647340 16.377300 -0.000001 -0.000001 2.998330 -1.014270 -0.251032 6.456720 -0.000001 -0.000000 0.622604 -7.341570 3.032980 12.994200 -0.242716 4.980390 -85.913600 -9.339350 -66.238800 5.348090 -0.000007 -0.000001 -72.526400 34.890000 23.309100 24.328600 0.000019 0.000005 -2.447140 0.108269 -92.524600 22.291600 -0.000001 0.000005 -1.568540 5.635460 -13.762900 12.994500 -0.242716 -4.980390 89.794900 0.640869 -72.258400 -5.348130 -0.000001 -0.000004 -55.264900 38.469500 -43.098100 -24.328900 0.000322 -0.000009 -6.170210 3.337430 -118.304000 -22.291500 -0.000108 -0.000004 7.828090 5.574550 -9.923500 -2.192480 -6.469440 -0.000000 177.040000 -0.221236 -36.377700 39.081100 -0.000007 -0.000012 0.042983 -0.040754 46.522100 40.985400 -0.000006 -0.000013 8.406880 -9.655280 -64.304400 11.754300 -0.000000 0.000003 -0.006200 -0.072650 -19.533700 -2.192510 6.469440 -0.000001 172.921000 13.628700 -169.955000 -39.081100 -0.002282 -0.040193 0.093213 -0.176025 27.055700 -40.985400 0.000008 0.000006 -1.410630 14.514900 -30.436000 -11.754300 -0.000006 -0.000006 -0.022317 -0.179798 -23.923600
0.000000 0.000000 0.000000 0.000000 0.000000 -0.000000 -4.217850 93.770400 24.881300 -87.892700 9.177800 174.543000 15.735700 0.000005 -0.000001 126.921000 81.114400 -127.653000 8.984550 -0.406207 -0.000000 6.597640 10.650300 -2.079830 16.377300 -0.000001 -0.000001 2.308680 -0.826694 -0.600982 6.456720 -0.000001 -0.000000 0.861666 -7.153850 2.631470 12.994200 -0.242716 4.980390 -85.546600 -10.150400 -66.157700 5.348090 -0.000007 -0.000001 -74.085800 32.399100 23.965200 24.328600 0.000019 0.000005 -3.149630 0.258656 -94.688200 22.291600 -0.000001 0.000005 -0.862645 5.629470 -13.294600 12.994500 -0.242716 -4.980390 90.082100 -0.263510 -72.680500 -5.348130 -0.000001 -0.000004 -55.884800 41.508400 -40.003400 -24.328900 0.000322 -0.000009 -6.448920 3.060560 -115.282000 -22.291500 -0.000108 -0.000004 7.610860 5.568810 -9.627600 -2.192480 -6.469440 -0.000000 -178.566000 -0.813029 -29.733700 39.081100 -0.000007 -0.000012 0.022485 -0.048570 24.840700 40.985400 -0.000006 -0.000013 3.635260 -4.430260 -66.707100 11.754300 -0.000000 0.000003 -0.007687 -0.085467 -20.056800 -2.192510 6.469440 -0.000001 175.127000 12.441700 -169.026000 -39.081100 -0.002282 -0.040193 0.148957 -0.207962 35.009400 -40.985400 0.000008 0.000006 0.578237 6.520930 -33.350800 -11.754300 -0.000006 -0.000006 -0.024256 -0.189814 -24.337200
